<?xml version="1.0" standalone="no"?><!DOCTYPE svg PUBLIC "-//W3C//DTD SVG 1.1//EN" "http://www.w3.org/Graphics/SVG/1.1/DTD/svg11.dtd"><svg t="1629365054047" class="icon" viewBox="0 0 1024 1024" version="1.1" xmlns="http://www.w3.org/2000/svg" p-id="1316" xmlns:xlink="http://www.w3.org/1999/xlink" width="200" height="200"><defs><style type="text/css"></style></defs><path d="M512 124.090182h-30.999273V93.090909a33.326545 33.326545 0 0 0-31.092363-30.999273A33.326545 33.326545 0 0 0 418.909091 93.090909v30.999273h-30.999273a33.326545 33.326545 0 0 0-31.092363 31.092363c0 15.453091 15.546182 30.999273 31.092363 30.999273H418.909091v30.999273c0 15.546182 15.546182 31.092364 30.999273 31.092364a33.326545 33.326545 0 0 0 31.092363-31.092364V186.181818H512a33.326545 33.326545 0 0 0 30.999273-30.999273A33.326545 33.326545 0 0 0 512 124.090182z" fill="#39d0d8" p-id="1317"></path><path d="M665.6 587.496727a270.522182 270.522182 0 0 0 86.853818-201.355636V71.68c0-10.984727-5.399273-22.062545-16.290909-24.762182A714.472727 714.472727 0 0 0 481.000727 0a729.088 729.088 0 0 0-255.255272 46.917818C214.853818 52.410182 209.454545 60.695273 209.454545 71.68v303.476364c0 82.757818 35.374545 157.230545 89.553455 212.340363C155.182545 620.637091 46.545455 753.105455 46.545455 910.242909c0 46.824727 35.374545 82.757818 81.454545 82.757818h705.908364a80.616727 80.616727 0 0 0 81.454545-82.850909A330.379636 330.379636 0 0 0 665.6 587.589818zM481.000727 907.450182l-92.346182-74.472727-92.346181-68.887273 35.374545-88.343273 154.717091 229.003636-5.399273 2.792728zM372.363636 637.114182c27.182545 13.870545 56.971636 22.062545 89.646546 22.062545h18.990545c37.981091 0 75.962182-8.192 108.544-24.762182L483.700364 797.137455 372.363636 637.114182z m143.918546 212.433454L630.225455 675.746909l35.281454 85.550546-92.346182 71.68-43.380363 35.84-13.591273-19.269819zM263.726545 372.363636a608.814545 608.814545 0 0 1 217.274182-41.332363c27.089455 0 51.572364 2.792727 78.754909 5.492363 13.498182 2.792727 29.789091-8.378182 29.789091-24.855272 2.792727-13.777455-8.098909-30.347636-24.389818-30.347637a862.208 862.208 0 0 0-84.154182-5.492363c-92.346182 0-171.101091 22.062545-217.274182 38.632727v-223.418182A671.185455 671.185455 0 0 1 481.000727 55.202909 671.185455 671.185455 0 0 1 698.181818 91.042909v223.418182c-8.192-2.792727-18.990545-5.585455-29.789091-11.077818a24.110545 24.110545 0 0 0-32.581818 19.362909 24.482909 24.482909 0 0 0 18.897455 33.047273c16.290909 5.585455 32.581818 11.077818 46.173091 16.570181v13.777455c0 121.390545-97.745455 220.625455-217.181091 220.625454H470.109091C356.072727 598.574545 266.426182 499.339636 266.426182 377.949091V372.363636h-2.699637zM100.817455 910.242909c0-121.390545 76.055273-223.418182 181.992727-259.258182l-35.374546 90.949818c-8.098909 22.062545-2.699636 49.710545 18.990546 63.488l92.346182 68.887273 76.055272 60.695273H128c-16.290909 2.792727-27.182545-8.192-27.182545-24.762182z m733.090909 27.554909h-257.861819l-16.290909-24.855273 46.08-35.84 92.346182-68.887272A56.785455 56.785455 0 0 0 717.172364 744.727273l-35.281455-91.042909a276.945455 276.945455 0 0 1 181.899636 259.258181 29.696 29.696 0 0 1-29.78909 24.855273z" fill="#39d0d8" p-id="1318"></path></svg>
